<svg width="161" height="37" viewBox="0 0 161 37" fill="none" xmlns="http://www.w3.org/2000/svg">
<g filter="url(#filter0_d_102_11)">
<path d="M9.67969 28H5.14844C5.01823 28 4.95312 27.9349 4.95312 27.8047L4.99219 0.324219C4.99219 0.220052 5.04427 0.167969 5.14844 0.167969H9.64062C9.74479 0.167969 9.79688 0.220052 9.79688 0.324219L9.83594 27.8047C9.83594 27.9349 9.78385 28 9.67969 28ZM29.707 28H25.7031C25.4948 28 25.3906 27.9089 25.3906 27.7266L25.3516 0.480469C25.3516 0.272135 25.4557 0.167969 25.6641 0.167969H29.2773L36.0352 15.9297L35.8398 0.480469C35.8398 0.272135 35.957 0.167969 36.1914 0.167969H40.1562C40.3125 0.167969 40.3906 0.272135 40.3906 0.480469L40.4297 27.7656C40.4297 27.9219 40.3646 28 40.2344 28H36.7188L29.7852 13.2734L30.0781 27.6875C30.0781 27.8958 29.9544 28 29.707 28ZM60.5938 28H56.1016C55.9714 28 55.9062 27.9349 55.9062 27.8047L55.9844 0.324219C55.9844 0.220052 56.0365 0.167969 56.1406 0.167969H68.9531C69.0833 0.167969 69.1484 0.220052 69.1484 0.324219V4.83594C69.1484 4.9401 69.0964 4.99219 68.9922 4.99219H60.7891V11.2031H68.9922C69.0964 11.2031 69.1484 11.2682 69.1484 11.3984L69.1875 15.9297C69.1875 16.0339 69.1224 16.0859 68.9922 16.0859H60.7891V27.8047C60.7891 27.9349 60.724 28 60.5938 28ZM97.8281 28H84.8984C84.7943 28 84.7422 27.9349 84.7422 27.8047L84.7812 0.363281C84.7812 0.233073 84.8464 0.167969 84.9766 0.167969H89.4297C89.5599 0.167969 89.625 0.233073 89.625 0.363281L89.5859 23.0781H97.8281C97.9583 23.0781 98.0234 23.1432 98.0234 23.2734V27.8047C98.0234 27.9349 97.9583 28 97.8281 28ZM120.004 28.3906C118.598 28.3906 117.296 28.026 116.098 27.2969C114.9 26.5677 113.943 25.5911 113.227 24.3672C112.523 23.1302 112.172 21.7826 112.172 20.3242L112.25 0.324219C112.25 0.220052 112.302 0.167969 112.406 0.167969H116.898C117.003 0.167969 117.055 0.220052 117.055 0.324219V20.3242C117.055 21.2227 117.341 21.9909 117.914 22.6289C118.487 23.2539 119.184 23.5664 120.004 23.5664C120.863 23.5664 121.579 23.2539 122.152 22.6289C122.725 21.9909 123.012 21.2227 123.012 20.3242V0.324219C123.012 0.220052 123.064 0.167969 123.168 0.167969H127.66C127.764 0.167969 127.816 0.220052 127.816 0.324219L127.895 20.3242C127.895 21.7956 127.543 23.1497 126.84 24.3867C126.124 25.6107 125.173 26.5872 123.988 27.3164C122.803 28.0326 121.475 28.3906 120.004 28.3906ZM146.301 28H141.809C141.717 28 141.678 27.9349 141.691 27.8047L146.262 13.5273L141.77 0.324219C141.743 0.220052 141.783 0.167969 141.887 0.167969H146.379C146.509 0.167969 146.587 0.220052 146.613 0.324219L149.289 9.83594L152.004 0.324219C152.03 0.220052 152.115 0.167969 152.258 0.167969H156.691C156.796 0.167969 156.835 0.220052 156.809 0.324219L152.336 13.4883L156.848 27.8047C156.9 27.9349 156.861 28 156.73 28H152.258C152.141 28 152.056 27.9349 152.004 27.8047L149.289 17.4727L146.535 27.8047C146.522 27.9349 146.444 28 146.301 28Z" fill="black"/>
<path d="M4.95312 27.8047L4.45312 27.804V27.8047H4.95312ZM4.99219 0.324219L5.49219 0.32493V0.324219H4.99219ZM9.79688 0.324219H9.29687L9.29688 0.32493L9.79688 0.324219ZM9.83594 27.8047H10.3359L10.3359 27.804L9.83594 27.8047ZM9.67969 27.5H5.14844V28.5H9.67969V27.5ZM5.14844 27.5C5.16041 27.5 5.26122 27.5033 5.35551 27.5976C5.44979 27.6919 5.45312 27.7927 5.45312 27.8047H4.45312C4.45312 27.9469 4.48901 28.1453 4.6484 28.3047C4.80779 28.4641 5.00626 28.5 5.14844 28.5V27.5ZM5.45312 27.8054L5.49219 0.32493L4.49219 0.323507L4.45313 27.804L5.45312 27.8054ZM5.49219 0.324219C5.49219 0.349207 5.4856 0.459787 5.3848 0.560585C5.28401 0.661383 5.17343 0.667969 5.14844 0.667969V-0.332031C5.01928 -0.332031 4.83058 -0.299404 4.6777 -0.146523C4.52482 0.0063591 4.49219 0.195063 4.49219 0.324219H5.49219ZM5.14844 0.667969H9.64062V-0.332031H5.14844V0.667969ZM9.64062 0.667969C9.61564 0.667969 9.50506 0.661383 9.40426 0.560585C9.30346 0.459787 9.29688 0.349207 9.29688 0.324219H10.2969C10.2969 0.195063 10.2642 0.0063591 10.1114 -0.146523C9.95848 -0.299404 9.76978 -0.332031 9.64062 -0.332031V0.667969ZM9.29688 0.32493L9.33594 27.8054L10.3359 27.804L10.2969 0.323507L9.29688 0.32493ZM9.33594 27.8047C9.33594 27.8045 9.33594 27.8006 9.33673 27.7937C9.33752 27.7868 9.33923 27.7757 9.34305 27.7613C9.35069 27.7327 9.36802 27.6868 9.40644 27.6388C9.49851 27.5237 9.62142 27.5 9.67969 27.5V28.5C9.84212 28.5 10.0432 28.4437 10.1873 28.2635C10.3144 28.1046 10.3359 27.9232 10.3359 27.8047H9.33594ZM25.3906 27.7266H25.8906V27.7258L25.3906 27.7266ZM25.3516 0.480469H24.8516V0.481186L25.3516 0.480469ZM29.2773 0.167969L29.7369 -0.0290604L29.607 -0.332031H29.2773V0.167969ZM36.0352 15.9297L35.5756 16.1267L36.5351 15.9234L36.0352 15.9297ZM35.8398 0.480469H35.3398L35.3399 0.48679L35.8398 0.480469ZM40.3906 0.480469H39.8906V0.481184L40.3906 0.480469ZM40.4297 27.7656H40.9297V27.7649L40.4297 27.7656ZM36.7188 28L36.2664 28.213L36.4015 28.5H36.7188V28ZM29.7852 13.2734L30.2375 13.0605L29.2853 13.2836L29.7852 13.2734ZM30.0781 27.6875H30.5782L30.578 27.6773L30.0781 27.6875ZM29.707 27.5H25.7031V28.5H29.707V27.5ZM25.7031 27.5C25.6608 27.5 25.7225 27.4893 25.798 27.5554C25.837 27.5895 25.863 27.6305 25.8774 27.6682C25.8906 27.7029 25.8906 27.7257 25.8906 27.7266H24.8906C24.8906 27.9134 24.9471 28.1396 25.1395 28.3079C25.3191 28.4651 25.5371 28.5 25.7031 28.5V27.5ZM25.8906 27.7258L25.8516 0.479752L24.8516 0.481186L24.8906 27.7273L25.8906 27.7258ZM25.8516 0.480469C25.8516 0.453375 25.858 0.524891 25.7832 0.599648C25.7085 0.674404 25.637 0.667969 25.6641 0.667969V-0.332031C25.4828 -0.332031 25.2551 -0.286383 25.0761 -0.10746C24.8972 0.0714626 24.8516 0.299231 24.8516 0.480469H25.8516ZM25.6641 0.667969H29.2773V-0.332031H25.6641V0.667969ZM28.8178 0.364998L35.5756 16.1267L36.4947 15.7327L29.7369 -0.0290604L28.8178 0.364998ZM36.5351 15.9234L36.3398 0.474148L35.3399 0.48679L35.5352 15.936L36.5351 15.9234ZM36.3398 0.480469C36.3398 0.474018 36.3409 0.490229 36.33 0.519312C36.318 0.551332 36.2953 0.588366 36.2599 0.619799C36.1909 0.681173 36.1377 0.667969 36.1914 0.667969V-0.332031C36.0107 -0.332031 35.7818 -0.293152 35.5956 -0.127611C35.3981 0.0479069 35.3398 0.282976 35.3398 0.480469H36.3398ZM36.1914 0.667969H40.1562V-0.332031H36.1914V0.667969ZM40.1562 0.667969C40.1403 0.667969 40.1027 0.665295 40.0557 0.644405C40.0058 0.622229 39.9629 0.5872 39.932 0.546093C39.8776 0.47348 39.8906 0.424381 39.8906 0.480469H40.8906C40.8906 0.328224 40.8646 0.122875 40.732 -0.0539055C40.5792 -0.257738 40.3564 -0.332031 40.1562 -0.332031V0.667969ZM39.8906 0.481184L39.9297 27.7663L40.9297 27.7649L40.8906 0.479753L39.8906 0.481184ZM39.9297 27.7656C39.9297 27.7866 39.9234 27.7093 39.9967 27.6213C40.0846 27.5159 40.196 27.5 40.2344 27.5V28.5C40.4029 28.5 40.612 28.4451 40.765 28.2615C40.9034 28.0954 40.9297 27.9009 40.9297 27.7656H39.9297ZM40.2344 27.5H36.7188V28.5H40.2344V27.5ZM37.1711 27.787L30.2375 13.0605L29.3328 13.4864L36.2664 28.213L37.1711 27.787ZM29.2853 13.2836L29.5782 27.6977L30.578 27.6773L30.2851 13.2633L29.2853 13.2836ZM29.5781 27.6875C29.5781 27.6912 29.5775 27.6719 29.59 27.6402C29.6038 27.6054 29.6284 27.5688 29.6633 27.5394C29.7286 27.4844 29.7726 27.5 29.707 27.5V28.5C29.8888 28.5 30.1184 28.4635 30.3074 28.3043C30.5129 28.1313 30.5781 27.8934 30.5781 27.6875H29.5781ZM55.9062 27.8047L55.4062 27.8033V27.8047H55.9062ZM55.9844 0.324219L56.4844 0.32564V0.324219H55.9844ZM60.7891 4.99219V4.49219H60.2891V4.99219H60.7891ZM60.7891 11.2031H60.2891V11.7031H60.7891V11.2031ZM69.1484 11.3984H68.6484L68.6485 11.4027L69.1484 11.3984ZM69.1875 15.9297H69.6875L69.6875 15.9254L69.1875 15.9297ZM60.7891 16.0859V15.5859H60.2891V16.0859H60.7891ZM60.5938 27.5H56.1016V28.5H60.5938V27.5ZM56.1016 27.5C56.1135 27.5 56.2143 27.5033 56.3086 27.5976C56.4029 27.6919 56.4062 27.7927 56.4062 27.8047H55.4062C55.4062 27.9469 55.4421 28.1453 55.6015 28.3047C55.7609 28.4641 55.9594 28.5 56.1016 28.5V27.5ZM56.4062 27.8061L56.4844 0.32564L55.4844 0.322798L55.4063 27.8033L56.4062 27.8061ZM56.4844 0.324219C56.4844 0.349207 56.4778 0.459787 56.377 0.560585C56.2762 0.661383 56.1656 0.667969 56.1406 0.667969V-0.332031C56.0115 -0.332031 55.8228 -0.299404 55.6699 -0.146523C55.517 0.0063591 55.4844 0.195063 55.4844 0.324219H56.4844ZM56.1406 0.667969H68.9531V-0.332031H56.1406V0.667969ZM68.9531 0.667969C68.9529 0.667969 68.9491 0.667969 68.9421 0.667177C68.9352 0.666388 68.9241 0.664677 68.9097 0.660852C68.8811 0.653221 68.8353 0.635881 68.7873 0.597466C68.6722 0.505396 68.6484 0.382488 68.6484 0.324219H69.6484C69.6484 0.161783 69.5921 -0.0392494 69.412 -0.183403C69.2531 -0.310513 69.0716 -0.332031 68.9531 -0.332031V0.667969ZM68.6484 0.324219V4.83594H69.6484V0.324219H68.6484ZM68.6484 4.83594C68.6484 4.81095 68.655 4.70037 68.7558 4.59957C68.8566 4.49877 68.9672 4.49219 68.9922 4.49219V5.49219C69.1213 5.49219 69.31 5.45956 69.4629 5.30668C69.6158 5.1538 69.6484 4.96509 69.6484 4.83594H68.6484ZM68.9922 4.49219H60.7891V5.49219H68.9922V4.49219ZM60.2891 4.99219V11.2031H61.2891V4.99219H60.2891ZM60.7891 11.7031H68.9922V10.7031H60.7891V11.7031ZM68.9922 11.7031C68.9339 11.7031 68.811 11.6794 68.7189 11.5643C68.6805 11.5163 68.6632 11.4704 68.6556 11.4418C68.6517 11.4275 68.65 11.4163 68.6492 11.4094C68.6484 11.4025 68.6484 11.3986 68.6484 11.3984H69.6484C69.6484 11.2799 69.6269 11.0985 69.4998 10.9396C69.3557 10.7594 69.1546 10.7031 68.9922 10.7031V11.7031ZM68.6485 11.4027L68.6875 15.934L69.6875 15.9254L69.6484 11.3941L68.6485 11.4027ZM68.6875 15.9297C68.6875 15.8714 68.7112 15.7485 68.8263 15.6564C68.8743 15.618 68.9202 15.6007 68.9488 15.5931C68.9632 15.5892 68.9743 15.5875 68.9812 15.5867C68.9881 15.5859 68.992 15.5859 68.9922 15.5859V16.5859C69.1107 16.5859 69.2921 16.5644 69.451 16.4373C69.6312 16.2932 69.6875 16.0921 69.6875 15.9297H68.6875ZM68.9922 15.5859H60.7891V16.5859H68.9922V15.5859ZM60.2891 16.0859V27.8047H61.2891V16.0859H60.2891ZM60.2891 27.8047C60.2891 27.7927 60.2924 27.6919 60.3867 27.5976C60.481 27.5033 60.5818 27.5 60.5938 27.5V28.5C60.7359 28.5 60.9344 28.4641 61.0938 28.3047C61.2532 28.1453 61.2891 27.9469 61.2891 27.8047H60.2891ZM84.7422 27.8047L84.2422 27.804V27.8047H84.7422ZM84.7812 0.363281L85.2812 0.363993V0.363281H84.7812ZM89.625 0.363281L90.125 0.364141V0.363281H89.625ZM89.5859 23.0781L89.0859 23.0773L89.0851 23.5781H89.5859V23.0781ZM97.8281 27.5H84.8984V28.5H97.8281V27.5ZM84.8984 27.5C84.9567 27.5 85.0796 27.5237 85.1717 27.6388C85.2101 27.6868 85.2274 27.7327 85.2351 27.7613C85.2389 27.7757 85.2406 27.7868 85.2414 27.7937C85.2422 27.8006 85.2422 27.8045 85.2422 27.8047H84.2422C84.2422 27.9232 84.2637 28.1046 84.3908 28.2635C84.535 28.4437 84.736 28.5 84.8984 28.5V27.5ZM85.2422 27.8054L85.2812 0.363993L84.2812 0.36257L84.2422 27.804L85.2422 27.8054ZM85.2812 0.363281C85.2812 0.37525 85.2779 0.476063 85.1836 0.570351C85.0893 0.664639 84.9885 0.667969 84.9766 0.667969V-0.332031C84.8344 -0.332031 84.6359 -0.296148 84.4765 -0.136757C84.3171 0.0226345 84.2812 0.221106 84.2812 0.363281H85.2812ZM84.9766 0.667969H89.4297V-0.332031H84.9766V0.667969ZM89.4297 0.667969C89.4177 0.667969 89.3169 0.664639 89.2226 0.570351C89.1283 0.476063 89.125 0.37525 89.125 0.363281H90.125C90.125 0.221106 90.0891 0.0226345 89.9297 -0.136757C89.7703 -0.296148 89.5719 -0.332031 89.4297 -0.332031V0.667969ZM89.125 0.362421L89.0859 23.0773L90.0859 23.079L90.125 0.364141L89.125 0.362421ZM89.5859 23.5781H97.8281V22.5781H89.5859V23.5781ZM97.8281 23.5781C97.8162 23.5781 97.7153 23.5748 97.6211 23.4805C97.5268 23.3862 97.5234 23.2854 97.5234 23.2734H98.5234C98.5234 23.1313 98.4876 22.9328 98.3282 22.7734C98.1688 22.614 97.9703 22.5781 97.8281 22.5781V23.5781ZM97.5234 23.2734V27.8047H98.5234V23.2734H97.5234ZM97.5234 27.8047C97.5234 27.7927 97.5268 27.6919 97.6211 27.5976C97.7153 27.5033 97.8162 27.5 97.8281 27.5V28.5C97.9703 28.5 98.1688 28.4641 98.3282 28.3047C98.4876 28.1453 98.5234 27.9469 98.5234 27.8047H97.5234ZM113.227 24.3672L112.792 24.6143L112.795 24.6197L113.227 24.3672ZM112.172 20.3242L111.672 20.3223V20.3242H112.172ZM112.25 0.324219L112.75 0.326172V0.324219H112.25ZM117.914 22.6289L117.542 22.963L117.545 22.9668L117.914 22.6289ZM122.152 22.6289L122.521 22.9668L122.524 22.963L122.152 22.6289ZM127.816 0.324219H127.316V0.326172L127.816 0.324219ZM127.895 20.3242H128.395V20.3223L127.895 20.3242ZM126.84 24.3867L127.271 24.6392L127.275 24.6338L126.84 24.3867ZM123.988 27.3164L124.247 27.7443L124.25 27.7422L123.988 27.3164ZM120.004 27.8906C118.689 27.8906 117.477 27.5511 116.358 26.8698L115.838 27.724C117.114 28.501 118.506 28.8906 120.004 28.8906V27.8906ZM116.358 26.8698C115.231 26.1842 114.333 25.268 113.658 24.1147L112.795 24.6197C113.553 25.9143 114.568 26.9512 115.838 27.724L116.358 26.8698ZM113.661 24.1201C113.002 22.9604 112.672 21.6982 112.672 20.3242H111.672C111.672 21.8669 112.045 23.3 112.792 24.6143L113.661 24.1201ZM112.672 20.3262L112.75 0.326172L111.75 0.322266L111.672 20.3223L112.672 20.3262ZM112.75 0.324219C112.75 0.349207 112.743 0.459787 112.643 0.560585C112.542 0.661383 112.431 0.667969 112.406 0.667969V-0.332031C112.277 -0.332031 112.088 -0.299404 111.936 -0.146523C111.783 0.0063591 111.75 0.195063 111.75 0.324219H112.75ZM112.406 0.667969H116.898V-0.332031H112.406V0.667969ZM116.898 0.667969C116.873 0.667969 116.763 0.661383 116.662 0.560585C116.561 0.459787 116.555 0.349207 116.555 0.324219H117.555C117.555 0.195063 117.522 0.0063591 117.369 -0.146523C117.216 -0.299404 117.028 -0.332031 116.898 -0.332031V0.667969ZM116.555 0.324219V20.3242H117.555V0.324219H116.555ZM116.555 20.3242C116.555 21.3395 116.883 22.2285 117.542 22.963L118.286 22.2948C117.8 21.7533 117.555 21.1058 117.555 20.3242H116.555ZM117.545 22.9668C118.21 23.6912 119.038 24.0664 120.004 24.0664V23.0664C119.329 23.0664 118.764 22.8167 118.283 22.291L117.545 22.9668ZM120.004 24.0664C121.001 24.0664 121.852 23.6967 122.521 22.9668L121.784 22.291C121.307 22.8111 120.725 23.0664 120.004 23.0664V24.0664ZM122.524 22.963C123.184 22.2285 123.512 21.3395 123.512 20.3242H122.512C122.512 21.1058 122.267 21.7533 121.78 22.2948L122.524 22.963ZM123.512 20.3242V0.324219H122.512V20.3242H123.512ZM123.512 0.324219C123.512 0.349207 123.505 0.459787 123.404 0.560585C123.304 0.661383 123.193 0.667969 123.168 0.667969V-0.332031C123.039 -0.332031 122.85 -0.299404 122.697 -0.146523C122.544 0.0063591 122.512 0.195063 122.512 0.324219H123.512ZM123.168 0.667969H127.66V-0.332031H123.168V0.667969ZM127.66 0.667969C127.635 0.667969 127.525 0.661383 127.424 0.560585C127.323 0.459787 127.316 0.349207 127.316 0.324219H128.316C128.316 0.195063 128.284 0.0063591 128.131 -0.146523C127.978 -0.299404 127.789 -0.332031 127.66 -0.332031V0.667969ZM127.316 0.326172L127.395 20.3262L128.395 20.3223L128.316 0.322266L127.316 0.326172ZM127.395 20.3242C127.395 21.712 127.064 22.9806 126.405 24.1396L127.275 24.6338C128.022 23.3189 128.395 21.8791 128.395 20.3242H127.395ZM126.408 24.1342C125.733 25.2888 124.84 26.2053 123.726 26.8906L124.25 27.7422C125.506 26.9692 126.515 25.9326 127.271 24.6392L126.408 24.1342ZM123.73 26.8885C122.628 27.5545 121.39 27.8906 120.004 27.8906V28.8906C121.56 28.8906 122.979 28.5106 124.247 27.7443L123.73 26.8885ZM141.691 27.8047L141.215 27.6523L141.199 27.7025L141.194 27.7549L141.691 27.8047ZM146.262 13.5273L146.738 13.6798L146.788 13.5226L146.735 13.3663L146.262 13.5273ZM141.77 0.324219L141.284 0.445486L141.289 0.465622L141.296 0.485271L141.77 0.324219ZM146.613 0.324219L146.128 0.445486L146.13 0.452581L146.132 0.45962L146.613 0.324219ZM149.289 9.83594L148.808 9.97134L149.286 11.6699L149.77 9.97317L149.289 9.83594ZM152.004 0.324219L152.485 0.461449L152.487 0.453503L152.489 0.445486L152.004 0.324219ZM156.809 0.324219L157.282 0.485069L157.289 0.465519L157.294 0.445486L156.809 0.324219ZM152.336 13.4883L151.863 13.3274L151.81 13.4824L151.859 13.6386L152.336 13.4883ZM156.848 27.8047L156.371 27.955L156.376 27.9729L156.383 27.9904L156.848 27.8047ZM152.004 27.8047L151.52 27.9318L151.528 27.9617L151.54 27.9904L152.004 27.8047ZM149.289 17.4727L149.773 17.3456L149.293 15.5183L148.806 17.3439L149.289 17.4727ZM146.535 27.8047L146.052 27.6759L146.042 27.7148L146.038 27.7549L146.535 27.8047ZM146.301 27.5H141.809V28.5H146.301V27.5ZM141.809 27.5C141.844 27.5 141.905 27.5064 141.974 27.5406C142.046 27.5769 142.103 27.6324 142.14 27.6939C142.203 27.7995 142.186 27.8819 142.189 27.8544L141.194 27.7549C141.184 27.8577 141.18 28.0378 141.282 28.2084C141.411 28.4239 141.629 28.5 141.809 28.5V27.5ZM142.168 27.9571L146.738 13.6798L145.786 13.3749L141.215 27.6523L142.168 27.9571ZM146.735 13.3663L142.243 0.163166L141.296 0.485271L145.788 13.6884L146.735 13.3663ZM142.255 0.202951C142.255 0.203814 142.295 0.352545 142.179 0.50703C142.059 0.667381 141.897 0.667969 141.887 0.667969V-0.332031C141.773 -0.332031 141.539 -0.305401 141.379 -0.092968C141.224 0.113602 141.258 0.340458 141.284 0.445486L142.255 0.202951ZM141.887 0.667969H146.379V-0.332031H141.887V0.667969ZM146.379 0.667969C146.379 0.667969 146.376 0.667959 146.37 0.667353C146.365 0.666744 146.356 0.66548 146.346 0.662806C146.324 0.657383 146.292 0.646034 146.258 0.623056C146.178 0.570185 146.141 0.495525 146.128 0.445486L147.098 0.202951C147.06 0.0487442 146.97 -0.10404 146.812 -0.208994C146.665 -0.307192 146.506 -0.332031 146.379 -0.332031V0.667969ZM146.132 0.45962L148.808 9.97134L149.77 9.70054L147.095 0.188818L146.132 0.45962ZM149.77 9.97317L152.485 0.461449L151.523 0.186989L148.808 9.69871L149.77 9.97317ZM152.489 0.445486C152.482 0.472374 152.469 0.507969 152.442 0.544868C152.416 0.582405 152.383 0.611944 152.349 0.63286C152.285 0.672192 152.24 0.667969 152.258 0.667969V-0.332031C152.132 -0.332031 151.973 -0.310211 151.825 -0.218798C151.662 -0.118444 151.561 0.0353279 151.519 0.202951L152.489 0.445486ZM152.258 0.667969H156.691V-0.332031H152.258V0.667969ZM156.691 0.667969C156.681 0.667969 156.519 0.667381 156.399 0.50703C156.283 0.352545 156.323 0.203814 156.324 0.202951L157.294 0.445486C157.32 0.340458 157.354 0.113602 157.199 -0.092968C157.04 -0.305401 156.806 -0.332031 156.691 -0.332031V0.667969ZM156.335 0.163368L151.863 13.3274L152.809 13.6491L157.282 0.485069L156.335 0.163368ZM151.859 13.6386L156.371 27.955L157.325 27.6544L152.813 13.338L151.859 13.6386ZM156.383 27.9904C156.383 27.9904 156.381 27.985 156.379 27.975C156.376 27.9651 156.372 27.9474 156.371 27.9234C156.368 27.8754 156.373 27.7872 156.429 27.6939C156.487 27.5969 156.57 27.545 156.632 27.5211C156.687 27.4999 156.726 27.5 156.73 27.5V28.5C156.843 28.5 157.126 28.4758 157.286 28.2084C157.434 27.9625 157.35 27.7134 157.312 27.619L156.383 27.9904ZM156.73 27.5H152.258V28.5H156.73V27.5ZM152.258 27.5C152.298 27.5 152.358 27.5135 152.411 27.5549C152.459 27.5915 152.471 27.6263 152.468 27.619L151.54 27.9904C151.589 28.1133 151.669 28.2457 151.802 28.3475C151.94 28.4539 152.1 28.5 152.258 28.5V27.5ZM152.487 27.6776L149.773 17.3456L148.805 17.5997L151.52 27.9318L152.487 27.6776ZM148.806 17.3439L146.052 27.6759L147.018 27.9335L149.772 17.6014L148.806 17.3439ZM146.038 27.7549C146.04 27.7286 146.059 27.6405 146.147 27.5671C146.186 27.5341 146.226 27.5167 146.255 27.5081C146.283 27.5 146.3 27.5 146.301 27.5V28.5C146.442 28.5 146.627 28.4682 146.787 28.3353C146.953 28.1967 147.017 28.0109 147.033 27.8544L146.038 27.7549Z" fill="black"/>
</g>
<defs>
<filter id="filter0_d_102_11" x="0.953125" y="0.167969" width="159.973" height="36.2227" filterUnits="userSpaceOnUse" color-interpolation-filters="sRGB">
<feFlood flood-opacity="0" result="BackgroundImageFix"/>
<feColorMatrix in="SourceAlpha" type="matrix" values="0 0 0 0 0 0 0 0 0 0 0 0 0 0 0 0 0 0 127 0" result="hardAlpha"/>
<feOffset dy="4"/>
<feGaussianBlur stdDeviation="2"/>
<feComposite in2="hardAlpha" operator="out"/>
<feColorMatrix type="matrix" values="0 0 0 0 0.950488 0 0 0 0 0.950488 0 0 0 0 0.950488 0 0 0 0.25 0"/>
<feBlend mode="normal" in2="BackgroundImageFix" result="effect1_dropShadow_102_11"/>
<feBlend mode="normal" in="SourceGraphic" in2="effect1_dropShadow_102_11" result="shape"/>
</filter>
</defs>
</svg>
